{"title":"The.Deep.1977.SWESUB.DVDRip.XviD-Tankafett.tv","uid":8225243,"size":843999232,"categoryP":"video","categoryS":"movies","magnet":"?xt=urn:btih:47a63a81c6483a44ad42fdc28761aa32d355bc4a&amp;dn=The.Deep.1977.SWESUB.DVDRip.XviD-Tankafett.tv&amp;tr=udp%3A%2F%2Ftracker.openbittorrent.com%3A80&amp;tr=udp%3A%2F%2Fopen.demonii.com%3A1337&amp;tr=udp%3A%2F%2Ftracker.coppersurfer.tk%3A6969&amp;tr=udp%3A%2F%2Fexodus.desync.com%3A6969","seeders":0,"leechers":2,"uploader":"Svennen1234","files":-1,"time":1362584807,"description":"A pair of young vacationers are involved in a dangerous conflict with treasure hunters when they discover a way into a deadly wreck in Bermuda waters. Featuring extended underwater sequences and a look into the affairs of treasure hunting. Based on a novel by Peter 'Jaws' Benchley. \n\nFormat                                   : AVI\nFormat/Info                              : Audio Video Interleave\nFile size                                : 700 MiB\nDuration                                 : 1h 59mn\nOverall bit rate mode                    : Variable\nOverall bit rate                         : 819 Kbps\nWriting application                      : VirtualDubMod 1.5.10.2 (build 2542/release)\nWriting library                          : VirtualDubMod build 2542/release\n\nVideo\nID                                       : 0\nFormat                                   : MPEG-4 Visual\nFormat profile                           : Advanced Simple@L5\nFormat settings, BVOP                    : 1\nFormat settings, QPel                    : No\nFormat settings, GMC                     : No warppoints\nFormat settings, Matrix                  : Default (H.263)\nMuxing mode                              : Packed bitstream\nCodec ID                                 : XVID\nCodec ID/Hint                            : XviD\nDuration                                 : 1h 59mn\nBit rate                                 : 695 Kbps\nWidth                                    : 608 pixels\nHeight                                   : 256 pixels\nDisplay aspect ratio                     : 2.40:1\nFrame rate                               : 25.000 fps\nColor space                              : YUV\nChroma subsampling                       : 4:2:0\nBit depth                                : 8 bits\nScan type                                : Progressive\nCompression mode                         : Lossy\nBits/(Pixel*Frame)                       : 0.179\nStream size                              : 594 MiB (85%)\nWriting library                          : XviD 64\n\nAudio\nID                                       : 1\nFormat                                   : MPEG Audio\nFormat version                           : Version 1\nFormat profile                           : Layer 3\nMode                                     : Joint stereo\nCodec ID                                 : 55\nCodec ID/Hint                            : MP3\nDuration                                 : 1h 59mn\nBit rate mode                            : Variable\nBit rate                                 : 111 Kbps\nNominal bit rate                         : 128 Kbps\nChannel(s)                               : 2 channels\nSampling rate                            : 48.0 KHz\nCompression mode                         : Lossy\nStream size                              : 95.1 MiB (14%)\nAlignment                                : Aligned on interleaves\nInterleave, duration                     : 24 ms (0.60 video frame)\nInterleave, preload duration             : 541 ms\nWriting library                          : LAME3.97 \nEncoding settings                        : -m j -V 4 -q 2 -lowpass 17 --abr 128\n\nTranslator site: www.swesub.nu\nTranslators: N/A \n\nSource: The Deep 1977 XviD ENG  \n\nDVD street date: Jun 17, 1977 \nDVD release: Jul 4, 2000 &lt;a href=&quot;\nhttp://bayimg.com/baKCkaaEG&quot; rel=&quot;nofollow&quot; target=&quot;_NEW&quot;&gt;\nhttp://bayimg.com/baKCkaaEG&lt;/a&gt; &lt;a href=&quot;\nhttp://bayimg.com/BAKcLAAeG&quot; rel=&quot;nofollow&quot; target=&quot;_NEW&quot;&gt;\nhttp://bayimg.com/BAKcLAAeG&lt;/a&gt; &lt;a href=&quot;\nhttp://bayimg.com/baKCoaaEg&quot; rel=&quot;nofollow&quot; target=&quot;_NEW&quot;&gt;\nhttp://bayimg.com/baKCoaaEg&lt;/a&gt; &lt;a href=&quot;\nhttp://bayimg.com/baKCPAaEG&quot; rel=&quot;nofollow&quot; target=&quot;_NEW&quot;&gt;\nhttp://bayimg.com/baKCPAaEG&lt;/a&gt;\n\nCreated of Svennen.","torrent":{"xt":"urn:btih:47a63a81c6483a44ad42fdc28761aa32d355bc4a","amp;dn":"The.Deep.1977.SWESUB.DVDRip.XviD-Tankafett.tv","amp;tr":["udp%3A%2F%2Ftracker.openbittorrent.com%3A80","udp%3A%2F%2Fopen.demonii.com%3A1337","udp%3A%2F%2Ftracker.coppersurfer.tk%3A6969","udp%3A%2F%2Fexodus.desync.com%3A6969"],"infoHash":"47a63a81c6483a44ad42fdc28761aa32d355bc4a","infoHashBuffer":{"type":"Buffer","data":[71,166,58,129,198,72,58,68,173,66,253,194,135,97,170,50,211,85,188,74]},"announce":[],"urlList":[]}}